<?xml version="1.0" encoding="utf-8"?>
<!-- Generator: Adobe Illustrator 21.0.2, SVG Export Plug-In . SVG Version: 6.00 Build 0)  -->
<svg version="1.1" id="Layer_1" xmlns="http://www.w3.org/2000/svg" xmlns:xlink="http://www.w3.org/1999/xlink" x="0px" y="0px"
	 width="16px" height="16px" viewBox="0 0 16 16" style="enable-background:new 0 0 16 16;" xml:space="preserve">
<style type="text/css">
	.st0{fill:none;stroke:#FFFFFF;stroke-width:1.8;stroke-miterlimit:10;}
</style>
<path class="st0" d="M1027.5,419.5l-4.5,4.5 M1026.5,424.5h-4v-4 M1031.5,415.5l4.5-4.5 M1032.5,410.5h4v4"/>
<path class="st0" d="M1027.5,415.5l-4.5-4.5 M1022.5,414.5v-4h4 M1031.5,419.5l4.5,4.5 M1036.5,420.5v4h-4"/>
<path class="st0" d="M6,10l-4.5,4.5 M5,15H1v-4 M10,6l4.5-4.5 M11,1h4v4"/>
<path class="st0" d="M6,6L1.5,1.5 M1,5V1h4 M10,10l4.5,4.5 M15,11v4h-4"/>
</svg>
