<?xml version="1.0" encoding="UTF-8" standalone="no"?>
<svg width="17px" height="17px" viewBox="0 0 17 17" version="1.1" xmlns="http://www.w3.org/2000/svg" xmlns:xlink="http://www.w3.org/1999/xlink">
    <!-- Generator: Sketch 50.2 (55047) - http://www.bohemiancoding.com/sketch -->
    <title>Group</title>
    <desc>Created with Sketch.</desc>
    <defs></defs>
    <g id="Page-1" stroke="none" stroke-width="1" fill="none" fill-rule="evenodd">
        <g id="Watch-Next-Video" transform="translate(-342.000000, -566.000000)" fill="silver" fill-rule="nonzero">
            <g id="Group" transform="translate(342.000000, 566.000000)">
                <path d="M1.45208333,1.434375 L4.71041667,1.434375 C5.08229167,1.434375 5.38333333,1.13333333 5.38333333,0.761458333 C5.38333333,0.389583333 5.08229167,0.0885416667 4.71041667,0.0885416667 L0.761458333,0.0885416667 C0.389583333,0.0885416667 0.0885416667,0.389583333 0.0885416667,0.761458333 L0.0885416667,4.69270833 C0.0885416667,5.01145833 0.301041667,5.3125 0.6375,5.38333333 C1.0625,5.471875 1.45208333,5.13541667 1.45208333,4.728125 L1.45208333,1.434375 Z" id="Shape"></path>
                <path d="M4.71041667,15.565625 L1.434375,15.565625 L1.434375,12.2895833 C1.434375,11.8645833 1.0625,11.5458333 0.619791667,11.634375 C0.301041667,11.6875 0.0708333333,11.9885417 0.0708333333,12.325 L0.0708333333,16.25625 C0.0708333333,16.628125 0.371875,16.9291667 0.74375,16.9291667 L4.675,16.9291667 C4.99375,16.9291667 5.29479167,16.7166667 5.365625,16.3802083 C5.45416667,15.9375 5.13541667,15.565625 4.71041667,15.565625 Z" id="Shape"></path>
                <path d="M12.2895833,1.434375 L15.565625,1.434375 L15.565625,4.71041667 C15.565625,5.08229167 15.8666667,5.38333333 16.2385417,5.38333333 C16.6104167,5.38333333 16.9114583,5.08229167 16.9114583,4.71041667 L16.9114583,0.761458333 C16.9114583,0.389583333 16.6104167,0.0885416667 16.2385417,0.0885416667 L12.3072917,0.0885416667 C11.9885417,0.0885416667 11.6875,0.301041667 11.6166667,0.6375 C11.5458333,1.0625 11.8645833,1.434375 12.2895833,1.434375 Z" id="Shape"></path>
                <path d="M16.9114583,15.7654315 L16.9114583,9.04006363 C16.9114583,8.40673302 16.3986349,7.89403682 15.7651472,7.89403682 C15.1316594,7.89403682 14.618836,8.40673302 14.618836,9.04006363 L14.618836,12.9908403 L7.34881002,5.72261759 C6.89631878,5.27023858 6.17233278,5.27023858 5.71984154,5.72261759 C5.26735029,6.17499659 5.26735029,6.898803 5.71984154,7.35118201 L12.9898675,14.6194047 L9.03811067,14.6194047 C8.40462293,14.6194047 7.89179951,15.1321009 7.89179951,15.7654315 C7.89179951,16.3987621 8.40462293,16.9114583 9.03811067,16.9114583 L15.7651472,16.9114583 C16.3986349,16.9114583 16.9114583,16.3987621 16.9114583,15.7654315 Z" id="Shape"></path>
            </g>
        </g>
    </g>
</svg>
